<svg xmlns="http://www.w3.org/2000/svg" xmlns:xlink="http://www.w3.org/1999/xlink" width="692.676" height="546.723" viewBox="0 0 692.676 546.723"><defs><style>.a,.b{opacity:0.5;}.a{fill:url(#a);}.b{fill:url(#b);}.ad,.ae,.af,.ah,.bl,.c,.s,.u,.v,.w,.x{fill:#fff;}.d{fill:url(#c);}.e{fill:url(#d);}.f{fill:url(#e);}.g{fill:url(#f);}.h{fill:url(#g);}.i{fill:url(#h);}.j{fill:url(#i);}.k{fill:url(#j);}.l{fill:url(#k);}.m{fill:url(#l);}.n{fill:url(#m);}.o{fill:url(#n);}.p{fill:url(#o);}.q{fill:url(#p);}.r{fill:url(#q);}.s{opacity:0.65;}.t{fill:url(#r);}.u{opacity:0.44;}.v{opacity:0.43;}.w{opacity:0.46;}.x{opacity:0.38;}.y{fill:url(#s);}.z{fill:url(#t);}.aa{fill:url(#u);}.ab{fill:url(#v);}.ac{fill:url(#w);}.ad{opacity:0.42;}.ae{opacity:0.58;}.af{opacity:0.47;}.ag{fill:url(#x);}.ah{opacity:0.6;}.ai{fill:url(#y);}.aj{fill:url(#z);}.ak{fill:url(#aa);}.al{fill:url(#ab);}.am{fill:url(#ac);}.an{fill:url(#ad);}.ao{fill:url(#ae);}.ap{fill:url(#af);}.aq{fill:url(#ag);}.ar{fill:url(#ah);}.as{fill:url(#ai);}.at{fill:url(#aj);}.au{fill:url(#ak);}.av{fill:url(#al);}.aw{fill:url(#am);}.ax{fill:url(#an);}.ay{fill:url(#ao);}.az{fill:url(#ap);}.ba{fill:url(#aq);}.bb{fill:url(#ar);}.bc{fill:url(#as);}.bd{fill:url(#at);}.be{fill:url(#au);}.bf{fill:url(#av);}.bg{fill:url(#aw);}.bh{fill:url(#ax);}.bi{fill:url(#ay);}.bj{fill:url(#az);}.bk{fill:url(#ba);}.bl{opacity:0.64;}.bm{fill:url(#bb);}</style><linearGradient id="a" x1="0.503" y1="1.082" x2="0.538" y2="-0.102" gradientUnits="objectBoundingBox"><stop offset="0" stop-color="#b37cff"/><stop offset="1" stop-color="#f895e7"/></linearGradient><linearGradient id="b" x1="-0.244" y1="1.082" x2="-0.21" y2="-0.104" xlink:href="#a"/><linearGradient id="c" x1="-8.969" y1="6.21" x2="-4.072" y2="0.76" gradientUnits="objectBoundingBox"><stop offset="0" stop-color="#a737d5"/><stop offset="1" stop-color="#ef497a"/></linearGradient><linearGradient id="d" x1="-1.223" y1="21.122" x2="-1.223" y2="0.727" xlink:href="#c"/><linearGradient id="e" x1="-1.232" y1="20.605" x2="-1.232" y2="0.21" xlink:href="#c"/><linearGradient id="f" x1="-1.24" y1="20.173" x2="-1.24" y2="-0.223" xlink:href="#c"/><linearGradient id="g" x1="-1.492" y1="42.28" x2="-5.061" y2="181.379" gradientUnits="objectBoundingBox"><stop offset="0" stop-color="#53d8ff"/><stop offset="1" stop-color="#3840f7"/></linearGradient><linearGradient id="h" x1="-1.392" y1="9.835" x2="-4.976" y2="41.74" xlink:href="#g"/><linearGradient id="i" x1="-1.405" y1="9.84" x2="-4.989" y2="41.746" xlink:href="#g"/><linearGradient id="j" x1="-1.418" y1="9.846" x2="-5.002" y2="41.751" xlink:href="#g"/><linearGradient id="k" x1="-1.431" y1="9.851" x2="-5.015" y2="41.757" xlink:href="#g"/><linearGradient id="l" x1="-1.444" y1="9.856" x2="-5.028" y2="41.762" xlink:href="#g"/><linearGradient id="m" x1="-1.457" y1="9.862" x2="-5.041" y2="41.767" xlink:href="#g"/><linearGradient id="n" x1="-4.139" y1="1.17" x2="-4.963" y2="2.68" gradientUnits="objectBoundingBox"><stop offset="0" stop-color="#fdf53f"/><stop offset="1" stop-color="#d93c65"/></linearGradient><linearGradient id="o" x1="0.52" y1="1.509" x2="0.468" y2="0.18" gradientUnits="objectBoundingBox"><stop offset="0" stop-color="#2b3582"/><stop offset="1" stop-color="#150e42"/></linearGradient><linearGradient id="p" x1="0" y1="0.5" x2="1" y2="0.5" xlink:href="#o"/><linearGradient id="q" x1="0.681" y1="0.105" x2="-0.218" y2="2.034" xlink:href="#n"/><linearGradient id="r" x1="0.525" y1="0.297" x2="0.225" y2="5.134" xlink:href="#o"/><linearGradient id="s" x1="19.401" y1="-0.047" x2="18.497" y2="3.564" xlink:href="#g"/><linearGradient id="t" x1="0.611" y1="-1.946" x2="0.506" y2="0.269" xlink:href="#c"/><linearGradient id="u" x1="0.512" y1="-0.497" x2="0.49" y2="1.281" xlink:href="#g"/><linearGradient id="v" x1="-0.535" y1="-0.451" x2="2.737" y2="2.555" xlink:href="#g"/><linearGradient id="w" x1="-2.941" y1="-0.686" x2="5.493" y2="2.222" xlink:href="#g"/><linearGradient id="x" x1="0.846" y1="-0.096" x2="-0.408" y2="2.048" xlink:href="#g"/><linearGradient id="y" x1="-53.755" y1="-0.057" x2="-54.247" y2="0.791" gradientUnits="objectBoundingBox"><stop offset="0" stop-color="#f9b776"/><stop offset="1" stop-color="#f47960"/></linearGradient><linearGradient id="z" x1="-51.289" y1="0.5" x2="-50.289" y2="0.5" xlink:href="#y"/><linearGradient id="aa" x1="-121.07" y1="-5.594" x2="-122.273" y2="0.571" xlink:href="#g"/><linearGradient id="ab" x1="-90.09" y1="-14.746" x2="-90.949" y2="-0.838" xlink:href="#g"/><linearGradient id="ac" x1="-91.393" y1="0.5" x2="-90.393" y2="0.5" xlink:href="#y"/><linearGradient id="ad" x1="-48.395" y1="0.5" x2="-47.395" y2="0.5" xlink:href="#y"/><linearGradient id="ae" x1="-49.412" y1="1.187" x2="-47.393" y2="4.473" gradientUnits="objectBoundingBox"><stop offset="0" stop-color="#cb236d"/><stop offset="1" stop-color="#4c246d"/></linearGradient><linearGradient id="af" x1="-49.077" y1="0.318" x2="-47.34" y2="1.529" xlink:href="#g"/><linearGradient id="ag" x1="-148.99" y1="0.5" x2="-147.99" y2="0.5" xlink:href="#y"/><linearGradient id="ah" x1="-80.252" y1="0.531" x2="-76.271" y2="0.806" xlink:href="#y"/><linearGradient id="ai" x1="-36.019" y1="0.17" x2="-36.747" y2="1.086" xlink:href="#o"/><linearGradient id="aj" x1="0.788" y1="-0.065" x2="-0.513" y2="2.534" xlink:href="#ae"/><linearGradient id="ak" x1="0.299" y1="1.235" x2="1.079" y2="-0.14" xlink:href="#o"/><linearGradient id="al" x1="0.218" y1="0.427" x2="4.378" y2="3.481" xlink:href="#y"/><linearGradient id="am" x1="0.016" y1="-0.195" x2="1.028" y2="1.243" xlink:href="#y"/><linearGradient id="an" x1="0" y1="0.5" x2="1" y2="0.5" xlink:href="#g"/><linearGradient id="ao" x1="0.162" y1="1.602" x2="1.197" y2="-1.187" xlink:href="#y"/><linearGradient id="ap" x1="0.677" y1="0.5" x2="1.677" y2="0.5" xlink:href="#g"/><linearGradient id="aq" x1="0.308" y1="1.698" x2="0.771" y2="-1.193" xlink:href="#y"/><linearGradient id="ar" x1="1.41" y1="-0.293" x2="-0.153" y2="1.155" xlink:href="#g"/><linearGradient id="as" x1="1.516" y1="-0.383" x2="-0.604" y2="1.457" xlink:href="#ae"/><linearGradient id="at" x1="0.187" y1="1.857" x2="0.442" y2="0.807" xlink:href="#y"/><linearGradient id="au" x1="0.517" y1="-0.051" x2="0.471" y2="1.454" xlink:href="#y"/><linearGradient id="av" x1="0.503" y1="0.623" x2="0.056" y2="3.249" xlink:href="#y"/><linearGradient id="aw" x1="-206.904" y1="22.426" x2="-205.683" y2="23.586" xlink:href="#y"/><linearGradient id="ax" x1="-0.895" y1="5.322" x2="2.383" y2="-1.516" xlink:href="#o"/><linearGradient id="ay" x1="-574.578" y1="80.326" x2="-571.197" y2="84.608" xlink:href="#y"/><linearGradient id="az" x1="-0.225" y1="3.196" x2="1.228" y2="1.9" xlink:href="#n"/><linearGradient id="ba" x1="1.506" y1="0.754" x2="1.06" y2="-0.289" xlink:href="#c"/><linearGradient id="bb" x1="-9.947" y1="1.738" x2="-10.792" y2="3.286" xlink:href="#n"/></defs><g transform="translate(-346.292 -140.74)"><path class="a" d="M662.814,222.058c-41.249,36.385-27.489,97.765-56.166,105.124-32.45,8.327-55.588-68.85-100.937-67.579-50.242,1.408-103.842,98.437-80.587,144.336,15.14,29.883,57.366,27.254,62.679,53.4,5.006,24.637-43.633,37.744-42.328,62.573,1.557,29.64,69.219,48.379,85.471,52.562,80.45,20.706,103.5-5.818,198.618-1.669,96.664,4.217,118.572,33.605,182.338,13.349,19.142-6.081,64.067-20.352,87.1-63.408,30.644-57.288,9.667-141.489-32.56-162.691-29.665-14.9-50.478-1.6-78.12-17.609-38.194-22.117-14.019-67.973-51.307-109.206C797.509,187.555,706.986,183.1,662.814,222.058Z" transform="translate(25.403 -25.974)"/><path class="b" d="M483.945,135c44.309,42.154,30.513,104.973,61.77,112.8,35.687,8.934,61.135-73.877,111.008-72.514,55.255,1.51,114.2,105.624,88.628,154.874-16.651,32.065-63.09,29.244-68.932,57.295-5.506,26.435,47.986,40.5,46.552,67.142-1.713,31.8-76.126,51.911-94,56.4-88.477,22.217-113.828-6.243-218.435-1.79-106.308,4.525-130.4,36.059-200.53,14.324-21.052-6.525-70.46-21.838-95.789-68.038-29.718-54.2,53.949-99.645,35.809-174.569-11.85-48.946-51.065-55.3-46.638-85.945,8.477-58.683,158.6-79.02,188.15-83.023C365.818,101.89,438.757,92.009,483.945,135Z" transform="translate(243.25 37.479)"/><g transform="translate(375.999 182.108)"><path class="c" d="M583.67,200.354,272.011,239.675c-4.96.625-7.741,5.884-7.116,10.844l47.749,378.465,362.935-45.79L631.995,237.736Z" transform="translate(-264.808 -200.354)"/><path class="d" d="M1009.583,202.027l4.861,38.533a3.541,3.541,0,0,0,1.1,2.591,3.406,3.406,0,0,0,2.655.779l38.055-5.134Z" transform="translate(-689.896 -201.309)"/><g transform="translate(36.304 49.352)"><path class="e" d="M729.816,317.473h0a2.449,2.449,0,0,1-2.106,2.734l-174.6,23.258a2.313,2.313,0,0,1-2.585-2.006l-.034-.268a2.313,2.313,0,0,1,2.006-2.585l174.566-23.254A2.449,2.449,0,0,1,729.816,317.473Z" transform="translate(-464.159 -315.33)"/><path class="f" d="M733.743,346.141h0a2.449,2.449,0,0,1-2.106,2.734l-174.6,23.258a2.314,2.314,0,0,1-2.585-2.006l-.034-.268a2.314,2.314,0,0,1,2.006-2.585L730.991,344.02A2.449,2.449,0,0,1,733.743,346.141Z" transform="translate(-466.4 -331.693)"/><path class="g" d="M736.1,373.711h0a2.449,2.449,0,0,1-2.106,2.734L559.394,399.7a2.313,2.313,0,0,1-2.585-2.005l-.034-.268a2.313,2.313,0,0,1,2.006-2.585L733.347,371.59A2.449,2.449,0,0,1,736.1,373.711Z" transform="translate(-467.745 -347.429)"/><rect class="h" width="282.158" height="9.925" rx="4.963" transform="translate(43.092 142.35) rotate(-7.191)"/><path class="i" d="M698.583,642.294a4.689,4.689,0,0,1-4.065,5.239l-304.4,38.4a4.689,4.689,0,0,1-5.239-4.065l-.069-.543a4.689,4.689,0,0,1,4.065-5.239l304.4-38.4a4.689,4.689,0,0,1,5.239,4.065Z" transform="translate(-369.586 -499.297)"/><path class="j" d="M708.093,717.671a4.688,4.688,0,0,1-4.065,5.239l-304.4,38.4a4.688,4.688,0,0,1-5.239-4.065l-.069-.543a4.689,4.689,0,0,1,4.065-5.239l304.4-38.4a4.689,4.689,0,0,1,5.239,4.065Z" transform="translate(-375.014 -542.319)"/><path class="k" d="M717.6,793.048a4.688,4.688,0,0,1-4.065,5.239l-304.4,38.4a4.689,4.689,0,0,1-5.239-4.065l-.069-.543a4.689,4.689,0,0,1,4.065-5.239l304.4-38.4a4.689,4.689,0,0,1,5.239,4.065Z" transform="translate(-380.442 -585.341)"/><path class="l" d="M727.113,868.425a4.688,4.688,0,0,1-4.065,5.239l-304.4,38.4A4.689,4.689,0,0,1,413.413,908l-.069-.543a4.689,4.689,0,0,1,4.065-5.239l304.4-38.4a4.689,4.689,0,0,1,5.239,4.065Z" transform="translate(-385.87 -628.363)"/><path class="m" d="M736.623,943.8a4.689,4.689,0,0,1-4.065,5.239l-304.4,38.4a4.689,4.689,0,0,1-5.239-4.065l-.069-.543a4.689,4.689,0,0,1,4.065-5.239l304.4-38.4a4.688,4.688,0,0,1,5.238,4.065Z" transform="translate(-391.298 -671.385)"/><path class="n" d="M746.133,1019.178a4.689,4.689,0,0,1-4.065,5.239l-304.4,38.4a4.688,4.688,0,0,1-5.239-4.065l-.069-.544a4.689,4.689,0,0,1,4.065-5.239l304.4-38.4a4.689,4.689,0,0,1,5.239,4.065Z" transform="translate(-396.725 -714.407)"/><g transform="translate(0 9.01)"><path class="o" d="M29.342,0h4.564A29.342,29.342,0,0,1,63.249,29.342v0A29.343,29.343,0,0,1,33.907,58.685H29.343A29.343,29.343,0,0,1,0,29.342v0A29.342,29.342,0,0,1,29.342,0Z" transform="translate(0 7.917) rotate(-7.191)"/><g transform="translate(16.674 10.476)"><path class="c" d="M427.877,403.44l-5.277.666a2.685,2.685,0,0,1-2.77-1.532l-3.016-6.492a1.954,1.954,0,0,0-2.017-1.115l-13.1,1.652a1.953,1.953,0,0,0-1.677,1.586l-1.286,7.022a2.684,2.684,0,0,1-2.3,2.18l-5.179.654A2.684,2.684,0,0,1,388.3,404.8l8.747-38.463a6.813,6.813,0,0,1,5.79-5.249l2.461-.31a6.813,6.813,0,0,1,6.936,3.691l17.7,35.1A2.684,2.684,0,0,1,427.877,403.44Zm-15.925-18.275-5.945-13.278a.9.9,0,0,0-1.7.228c-.619,4.006-1.8,10.76-2.428,14.314a1.759,1.759,0,0,0,1.953,2.051l6.737-.85A1.759,1.759,0,0,0,411.951,385.165Z" transform="translate(-388.231 -360.727)"/></g><path class="c" d="M364.96,395.333l-3.42-27.107a6.474,6.474,0,0,1,5.612-7.233l11.581-1.461.054.426-11.581,1.461a6.045,6.045,0,0,0-5.24,6.754l3.42,27.107Z" transform="translate(-356.293 -349.569)"/></g></g></g><g transform="translate(173.225 -195.207)"><g transform="translate(303.153 370.368)"><path class="p" d="M1077.16,1156.374l-12.148,108.95h140.939l-18.357-108.95Z" transform="translate(-840.407 -860.123)"/><path class="q" d="M469.1,398.191V647.714a37.852,37.852,0,0,0,36.877,37.841c91.138,2.35,409.895,8.049,496.652,6.77a27.852,27.852,0,0,0,27.421-27.059c1.673-57.968,4.39-197.36-5.665-262.075a28.662,28.662,0,0,0-27.405-24.26c-76.362-2.443-414.266-10.2-500.982-8.252A27.513,27.513,0,0,0,469.1,398.191Z" transform="translate(-469.096 -370.368)"/><path class="r" d="M510.636,413V650.067A21.931,21.931,0,0,0,532.24,672l483.787,5.977a21.344,21.344,0,0,0,21.663-21.262l.809-234.946a15.609,15.609,0,0,0-15.23-15.664L527.961,396.095A16.913,16.913,0,0,0,510.636,413Z" transform="translate(-494.979 -386.395)"/><path class="s" d="M1040.1,1152.539h-.013l-530.7-9.042a.743.743,0,0,1,.025-1.486l530.7,9.042a.743.743,0,0,1-.012,1.486Z" transform="translate(-493.751 -851.173)"/><path class="s" d="M1218.184,1178.53a6.265,6.265,0,1,1,6.265-6.264A6.272,6.272,0,0,1,1218.184,1178.53Zm0-11.044a4.779,4.779,0,1,0,4.779,4.779A4.784,4.784,0,0,0,1218.184,1167.487Z" transform="translate(-931.943 -866.121)"/><path class="t" d="M1163.775,1454.089H957.5c-5.6,0-9.812-3.99-8.728-8.275l2.647-10.468c.8-3.148,4.259-5.459,8.373-5.587l198.856-6.205c4.3-.134,8.1,2.147,9.039,5.419l4.771,16.673C1173.7,1449.977,1169.469,1454.089,1163.775,1454.089Z" transform="translate(-767.872 -1026.597)"/><path class="c" d="M1265.6,1445.076a.743.743,0,0,1-.011-1.486l8.521-.124h.011a.743.743,0,0,1,.011,1.486l-8.522.124Z" transform="translate(-964.926 -1039.008)"/><path class="c" d="M968.087,1461.316a.744.744,0,0,1-.735-.86l1.216-7.613a8.564,8.564,0,0,1,8.345-7.226l90.381-1.321a.743.743,0,0,1,.022,1.486l-90.381,1.321a7.081,7.081,0,0,0-6.9,5.974l-1.216,7.614A.743.743,0,0,1,968.087,1461.316Z" transform="translate(-779.55 -1039.525)"/></g><path class="u" d="M1532.565,614.645H1478.79a6.112,6.112,0,0,1,0-12.223h53.775a6.112,6.112,0,0,1,0,12.223Z" transform="translate(-791.268 -144.591)"/><path class="v" d="M1673.173,609.334h58.041c3.643,0,6.6,10.856,6.6,24.246V776.365c0,13.391-2.953,24.247-6.6,24.247h-58.041c-3.643,0-6.6-10.855-6.6-24.247V633.58C1666.576,620.19,1669.53,609.334,1673.173,609.334Z" transform="translate(-912.084 -148.898)"/><rect class="w" width="65.998" height="48.213" rx="16.215" transform="translate(681.411 476.845)"/><path class="x" d="M1478.79,809.414h53.775c3.375,0,6.112,6.595,6.112,14.73v86.741c0,8.135-2.737,14.73-6.112,14.73H1478.79c-3.375,0-6.111-6.594-6.111-14.73V824.144C1472.678,816.009,1475.414,809.414,1478.79,809.414Z" transform="translate(-791.268 -273.566)"/><g transform="translate(202.775 728.636)"><g transform="translate(51.501)"><path class="y" d="M354.716,1370.057H543.832v-30.715H354.716C358.764,1339.342,358.764,1370.057,354.716,1370.057Z" transform="translate(-348.949 -1332.397)"/><path class="z" d="M534.3,1350.889v-14.057c0-4.955-3.737-8.972-8.347-8.972H345.979c-3.625,0-6.564-2.385-6.564-5.327a1.836,1.836,0,0,1,1.995-1.618H538.1c4.511,0,11.673,5.755,11.673,12.854V1353.4c0,6.693-6.953,12.12-11.206,12.12H342.444a2.789,2.789,0,0,1-3.029-2.458c0-2.478,2.475-4.487,5.53-4.487h182.2A7.433,7.433,0,0,0,534.3,1350.889Z" transform="translate(-339.415 -1320.915)"/><path class="c" d="M548.791,1355.817H371.469a.377.377,0,0,1,0-.754H548.791a.377.377,0,0,1,0,.754Z" transform="translate(-359.153 -1342.192)"/><path class="c" d="M548.791,1367.912H371.469a.377.377,0,0,1,0-.754H548.791a.377.377,0,0,1,0,.754Z" transform="translate(-359.153 -1349.729)"/><path class="c" d="M548.791,1380.009H371.469a.377.377,0,1,1,0-.754H548.791a.377.377,0,1,1,0,.754Z" transform="translate(-359.153 -1357.266)"/><path class="c" d="M548.791,1392.1H371.469a.377.377,0,0,1,0-.754H548.791a.377.377,0,0,1,0,.754Z" transform="translate(-359.153 -1364.803)"/><path class="c" d="M548.791,1404.2H371.469a.377.377,0,0,1,0-.754H548.791a.377.377,0,0,1,0,.754Z" transform="translate(-359.153 -1372.34)"/></g><g transform="translate(0 44.278)"><rect class="aa" width="252.399" height="51.322" rx="21.391"/><rect class="ab" width="29.651" height="39.525" rx="7.242" transform="translate(28.525 5.898)"/><rect class="ac" width="11.125" height="39.525" rx="5.563" transform="translate(62.537 5.898)"/></g></g><path class="ad" d="M1040.716,482.548H558.988a10.1,10.1,0,0,1-10.1-10.1V432.273a10.1,10.1,0,0,1,10.351-10.093l481.728,12.182a10.1,10.1,0,0,1,9.841,10.093v28A10.1,10.1,0,0,1,1040.716,482.548Z" transform="translate(-215.663 -32.281)"/><rect class="ae" width="177.122" height="153.253" rx="36.517" transform="translate(494.178 462.209)"/><rect class="af" width="154.097" height="154.097" rx="34.406" transform="translate(329.785 457.831)"/><g transform="translate(329.785 455.024)"><g transform="translate(11.962)"><path class="ag" d="M677.965,675.566H577.3c-3.21,0-5.812-1.922-5.812-4.294v-71.8c0-2.367,2.593-4.287,5.8-4.294l101.466-.2c3.228-.006,5.845,1.932,5.827,4.317l-.8,72.005C683.76,673.658,681.163,675.566,677.965,675.566Z" transform="translate(-571.492 -594.973)"/><path class="ah" d="M682.41,609.555l-90.007.409c-3.254.015-5.876,1.973-5.861,4.377l.628,60.391c.015,2.367,2.586,4.293,5.79,4.336l87.453,1.179c3.266.044,5.959-1.882,6-4.295l1.926-61.98C688.389,611.532,685.713,609.54,682.41,609.555Z" transform="translate(-580.869 -604.059)"/><path class="ah" d="M710.706,622.26v.458c0,.72-.79,1.3-1.764,1.3H639.591c-.974,0-1.764-.583-1.764-1.3v-.458c0-.72.79-1.3,1.764-1.3h69.351C709.916,620.957,710.706,621.54,710.706,622.26Z" transform="translate(-612.825 -611.163)"/><path class="ah" d="M704.563,637.443h0a1.611,1.611,0,0,1-1.73,1.232l-60.65.816c-.987.014-1.8-.574-1.8-1.3v-.106c0-.712.773-1.292,1.736-1.3l60.65-.71C703.8,636.057,704.619,636.688,704.563,637.443Z" transform="translate(-614.42 -620.579)"/><path class="c" d="M683.16,703.947h-.06l-82.033-.727a5.557,5.557,0,0,1-3.957-1.554,3.415,3.415,0,0,1-1.011-2.458l2.112-42.654c.054-2.119,2.3-3.832,5.024-3.832h.094l81.889,1.177a5.554,5.554,0,0,1,3.927,1.56,3.417,3.417,0,0,1,1.006,2.447v.019l-1.968,42.184C688.131,702.261,685.93,703.947,683.16,703.947Zm-79.924-49.553c-1.794,0-3.323,1.007-3.354,2.222L597.77,699.27a1.76,1.76,0,0,0,.543,1.233,3.941,3.941,0,0,0,2.769,1.044l82.033.727h.043c1.793,0,3.325-1.012,3.354-2.225l1.968-42.193a1.768,1.768,0,0,0-.539-1.239,3.937,3.937,0,0,0-2.746-1.047l-81.889-1.177Zm86.08,3.492h0Z" transform="translate(-586.824 -630.955)"/><path class="c" d="M691.523,676.22h-89.34a.836.836,0,1,1,0-1.672h89.34a.836.836,0,1,1,0,1.672Z" transform="translate(-590.094 -644.556)"/></g><g transform="translate(0 68.064)"><path class="ai" d="M623.855,802.451s20.673,26.468-2.913,53.388l-8.867-.826s17.07-27.408,9.467-49.256l-12.561.917-6.946-4.528Z" transform="translate(-578.561 -792.125)"/><path class="aj" d="M578.126,1135.224s-16.749,36.506-25.537,51.626c0,0-1.745,9.514,0,12.506l1.487.661-6.942-.206s-.617-12.8-.135-13.512a1.769,1.769,0,0,1,1.445-.668s2.977-23.583,11.6-28.616l8.355-28.775Z" transform="translate(-544.155 -995.312)"/><path class="ak" d="M552.642,1296.574c.011.167-5.421.091-8.371.037a2.347,2.347,0,0,1-2.25-1.85l-2.228-11.705a2.1,2.1,0,0,1,1.6-2.445l1.244-.285s1.774,2.434,1.216,4.725-1.055,8.227.356,8.918,5.471.812,5.471.812S552.549,1295.066,552.642,1296.574Z" transform="translate(-539.756 -1090.075)"/><path class="al" d="M642.7,1313.911a.613.613,0,0,1-.309,1.145c-4.937-.05-16-.206-16.984-.615-1.269-.528.462-5.088,2.285-6.632l10.063,3.284Z" transform="translate(-592.854 -1107.201)"/><path class="am" d="M650.322,1140.594s-10.824,52.362-13.886,62.576l7.243,4.546s-3.63-.617-6.321-.812-5.167-3.284-5.167-3.284l.868-1.384s2.714-52.077,2.053-57.991Z" transform="translate(-597.351 -1003.009)"/><path class="an" d="M713.055,791.008s1.493,27.238-23.306,41.157l5.97,13.617s22.452-13.58,21.622-50.618a4.306,4.306,0,0,1,1.054-2.9l4.772-5.536a8.567,8.567,0,0,0,1.822-7.672l-.628-2.511a1.3,1.3,0,0,0-1.917-.81l-.5.29a8.763,8.763,0,0,0-3.6,4L716,785.261a5.034,5.034,0,0,1-5.029,2.96l-1.449-.125Z" transform="translate(-633.215 -775.558)"/><path class="ao" d="M647.439,920.252c-4.148,1.151-18.2,4.848-26.979,4.7l5.388,30.4-.429,4.959,17.565-.079s4.945-11.484,8.846-17.209c1.127-1.654.288-3.626-.351-5.523l.877-.584a2.389,2.389,0,0,0,.947-2.731L649.026,921.1A1.306,1.306,0,0,0,647.439,920.252Z" transform="translate(-590.042 -865.686)"/><path class="ap" d="M630.709,1018.511l-.346,3s4.964,14.866-2.482,49.587c0,0-16.126,4.568-29.38-6.363,0,0,3.739-32.771,4.76-34.3,5.086-7.6,8.475-9.256,8.475-9.256l.153-3.282S626.065,1020.466,630.709,1018.511Z" transform="translate(-576.359 -926.562)"/><path class="aq" d="M647.37,908.221c.062-.081-3.667-11.258-3.667-11.258l-5.341.484-2.087,12.679S644.645,911.817,647.37,908.221Z" transform="translate(-599.896 -851.205)"/><g transform="translate(7.754 23.585)"><path class="ar" d="M627.161,849.3c.356.222,11.413,4.792,9.038,16.271a2.155,2.155,0,0,1-1.226,1.536,18.732,18.732,0,0,1-9.293,1.538c-5.793-.589-9.588-10.7-9.427-13.638S623.631,847.1,627.161,849.3Z" transform="translate(-595.171 -844.751)"/><path class="as" d="M588.953,838.219c2.212.29,4.477,2.551,4.155,4.867-.31,2.227-2.7,2.711-3.769,4.322-2.48,3.73-.225,10.1,2.08,13.433,6.931,10.012,18.3,22.168,10.5,35.215-5.061,8.47-16.346,13.273-25.947,12.2-5.1-.57-10.052-5.882-12.46-10.143A27.032,27.032,0,0,1,561.327,878c1.758-6.38,7.432-11.416,11.163-16.729,1.348-1.919,2.655-4.054,2.623-6.4-.02-1.464-.567-2.87-.732-4.325C573.541,843.125,582.371,837.355,588.953,838.219Z" transform="translate(-560.328 -838.133)"/><path class="c" d="M583.163,914.258l.169-.271c-3.547-2.207-5.753-6.627-5.756-11.533,0-3.9,1.217-7.978,3.837-12.842.977-1.813,2.068-3.6,3.123-5.333,1.271-2.084,2.584-4.238,3.71-6.453,1.012-1.992,1.972-4.339,1.408-6.638a12.258,12.258,0,0,0-1.551-3.261c-.977-1.626-1.9-3.163-1.416-4.843l-.307-.088c-.523,1.814.479,3.482,1.449,5.1a12.035,12.035,0,0,1,1.515,3.172c.539,2.2-.4,4.478-1.383,6.418-1.12,2.2-2.43,4.353-3.7,6.432-1.058,1.735-2.151,3.528-3.132,5.348-2.647,4.913-3.878,9.042-3.876,12.994C577.26,907.47,579.524,911.993,583.163,914.258Z" transform="translate(-570.876 -853.624)"/><path class="c" d="M594.1,947.712l.26-.184c-2.783-3.929-3.8-9.421-2.795-15.067,1-5.6,3.749-10.693,6.033-14.509l-.274-.164c-2.3,3.838-5.066,8.969-6.074,14.617C590.231,938.134,591.269,943.714,594.1,947.712Z" transform="translate(-579.357 -887.766)"/></g></g></g><g transform="translate(513.97 503.739)"><g transform="translate(0 0)"><path class="at" d="M1033.916,725.324l122.817-1.1a4.317,4.317,0,0,1,4.355,4.341l-.537,94.245a4.313,4.313,0,0,1-4.441,4.29c-22.206-.662-120.795-3.583-125.147-3.4-4.3.18-1.964-75.528-1.322-94.208A4.314,4.314,0,0,1,1033.916,725.324Z" transform="translate(-1028.43 -724.223)"/><path class="c" d="M1162.239,829.473h-.023c-17.646-.526-106.5-3.165-122.845-3.4l-.156,0-.027-.153c-1.539-8.679-1.507-44.126.08-90.3a.682.682,0,0,1,.678-.659l122.817-1.1a.685.685,0,0,1,.691.689l-.537,94.245A.683.683,0,0,1,1162.239,829.473ZM1039.532,825.7c16.751.245,105.1,2.868,122.695,3.393h.02a.3.3,0,0,0,.292-.306l.537-94.245a.289.289,0,0,0-.089-.219.3.3,0,0,0-.223-.091l-122.816,1.1a.306.306,0,0,0-.305.295C1038.067,781.516,1038.025,816.789,1039.532,825.7Z" transform="translate(-1034.427 -730.226)"/><path class="c" d="M1076.945,855.305h80.51a3.24,3.24,0,0,0,2.793-4.883l-31.873-54.184a3.24,3.24,0,0,0-5.741.3l-15.39,33.722a3.24,3.24,0,0,1-5.137,1.043l-6.225-5.707a3.241,3.241,0,0,0-4.85.539l-16.746,24.082A3.24,3.24,0,0,0,1076.945,855.305Z" transform="translate(-1056.636 -768.099)"/><circle class="c" cx="11.574" cy="11.574" r="11.574" transform="translate(83.794 30.263) rotate(-58.283)"/></g><g transform="translate(119.681 47.939)"><g transform="translate(36.76 28.202)"><path class="au" d="M1492.164,964.125c-2.826-10.453-11.558-19.04-21.288-21.21a3.278,3.278,0,0,1-2.4-4l.009-.037c1.41-6.079-2.487-10.922-8.364-12.285s-11.507,1.27-12.917,7.349a13.465,13.465,0,0,0,2.965,11.706,3.269,3.269,0,0,1,.124,4.332c-5.929,6.946-8.341,17.549-5.777,27.032,3.777,13.969,16.911,20.209,30.07,16.651S1495.941,978.094,1492.164,964.125Z" transform="translate(-1443.495 -926.239)"/><path class="c" d="M1524.234,987.749l-.255-.179c2.355-3.344,2.658-8.169.789-12.594-1.484-3.515-4.141-6.729-8.359-10.114-1.572-1.262-3.238-2.46-4.85-3.617-1.94-1.395-3.947-2.836-5.807-4.4-1.673-1.41-3.433-3.16-3.8-5.448a11.98,11.98,0,0,1,.154-3.531c.261-1.839.507-3.576-.571-4.907l.243-.2c1.164,1.436.9,3.323.638,5.147a11.784,11.784,0,0,0-.156,3.438c.353,2.188,2.066,3.886,3.7,5.258,1.85,1.559,3.852,3,5.788,4.388,1.615,1.161,3.286,2.36,4.864,3.627,4.26,3.42,6.946,6.673,8.451,10.236C1526.966,979.377,1526.651,984.319,1524.234,987.749Z" transform="translate(-1479.657 -936.533)"/><path class="c" d="M1526.89,1022.184l-.294-.106c1.6-4.433,1.134-9.88-1.287-14.947-2.4-5.021-6.324-9.114-9.474-12.12l.216-.226c3.169,3.023,7.118,7.145,9.54,12.212C1528.048,1012.138,1528.522,1017.673,1526.89,1022.184Z" transform="translate(-1488.569 -968.95)"/></g><path class="av" d="M1371.424,875.508l-.108-3.61,3.773-7.493a4.88,4.88,0,0,0,.015-4.361l-4.275-8.63s-2.469,18.733-3.118,20.29,1.761,4.354,1.761,4.354Z" transform="translate(-1359.445 -851.414)"/><path class="aw" d="M1374.328,905.762s11.477,31.287,31.033,41.066c0,0-6.509,10.62-9.906,11.264,0,0-20.891-26.738-23.02-48.644Z" transform="translate(-1362.458 -885.278)"/><path class="ax" d="M1586.106,1402.094l.577,4.745c.6,2.255,3.5,7.937,7.23,7.567,2.292-.228,2.569-6.925,2.249-7.93a17.282,17.282,0,0,0-3.182-6.2h-5.264A1.622,1.622,0,0,0,1586.106,1402.094Z" transform="translate(-1495.587 -1193.406)"/><path class="ay" d="M1470.207,1257.625l-.889,5.226s2.975,30.135,3.5,42.189a9.444,9.444,0,0,1-1.4,5.368l-5.173,8.4,13.148-7.758.262-1.6-2.152-2.959,2.819-33.759a10.355,10.355,0,0,0-1.179-5.729l-2.719-5.109Z" transform="translate(-1420.914 -1104.521)"/><path class="az" d="M1462.12,1402.566h4.2a2.525,2.525,0,0,0,2.005-.983c1.308-1.7,4.018-5.015,5.314-5.1,1.744-.116,1.521,6.085,1.521,6.085h.978l1.239-7.706a4.561,4.561,0,0,0-2.394-4.768h0s-.4,2.948-2.561,4.253-8.8,5.976-8.8,5.976a6,6,0,0,0-1.7.045A1.11,1.11,0,0,0,1462.12,1402.566Z" transform="translate(-1417.649 -1187.06)"/><path class="ba" d="M1524.524,1260.621s17.429,33.061,20.2,40.61a72.479,72.479,0,0,1,3.778,14.442c.058.932,1.217,1.825,4.412,1.825a3.065,3.065,0,0,0,2.851-1.3,1.863,1.863,0,0,0,.07-1.8c-1.008-2.041-4.207-8.561-5.392-11.518-1.415-3.531-4.458-19.533-6.127-25.1s-3.555-11.6-10.823-17.158C1533.492,1260.621,1528.5,1255.734,1524.524,1260.621Z" transform="translate(-1457.223 -1105.034)"/><path class="bb" d="M1454.774,1054.58c-2.553-10.817.016-18.965,2.713-23.989a8.108,8.108,0,0,0-3.4-11.062,62.881,62.881,0,0,0-12.7-4.813s-12.495,9.134-11.012,16.284c.869,4.19,8.782,25.1,8.782,25.1A17.387,17.387,0,0,0,1454.774,1054.58Z" transform="translate(-1398.483 -953.167)"/><path class="bc" d="M1477.963,1129.913c-1.83-5.512-9.968-9.432-9.968-9.432a17.386,17.386,0,0,1-15.617,1.521,31.323,31.323,0,0,0-.508,12.1c1.132,5.83,8.239,43.293,8.239,43.293,11.2,2.269,28.418-2.283,28.418-2.283C1481.4,1162.452,1479.793,1135.425,1477.963,1129.913Z" transform="translate(-1411.705 -1019.068)"/><path class="bd" d="M1469.787,978.727l3.655,16.419c.35,1.446-.969,1.209-2.431.934-2.394-.451-5.48-1.381-6.512-3.244a1.765,1.765,0,0,1-.187-.619l-1.57-11.385a2.046,2.046,0,0,1,1.2-2.15l3.031-1.344A2.046,2.046,0,0,1,1469.787,978.727Z" transform="translate(-1418.715 -929.766)"/><path class="be" d="M1355.3,952.543s9.62,33.421,48.415,30.28a4.494,4.494,0,0,1,4.855,4.121l.1,1.341a5.982,5.982,0,0,1-6.258,6.446c-12.9-.653-40.613-5.72-50.111-36.378Z" transform="translate(-1349.915 -914.427)"/><path class="bf" d="M1348.353,930.722a62.467,62.467,0,0,1-2.313-8.841c-.464-3.4,1.245-11.032,2.714-13.179s1.715,3.115,2.376,5.587-.459,6-.459,6l.675,4.623Z" transform="translate(-1345.963 -886.797)"/><g transform="translate(38.199 31.951)"><path class="bg" d="M1452.688,945.19s-9.242,13.465-3.495,17.216,12.327-5.817,12.327-5.817,2.066-7.313-.284-9.736S1452.688,945.19,1452.688,945.19Z" transform="translate(-1447.311 -941.726)"/><path class="bh" d="M1464.289,936.383s-4.021,1.034-4.552,2.872,5.794,3.414,7.559,3.464l1.56,7.348s4.07-7.017,2.33-10.992S1464.289,936.383,1464.289,936.383Z" transform="translate(-1455.034 -936.185)"/><path class="bi" d="M1480.082,968.978s3.614-4.349,5.136-1.587-3.234,4.947-4.919,3.609Z" transform="translate(-1467.73 -955.057)"/></g></g></g></g><g transform="translate(508.064 514.044) rotate(17)"><g transform="translate(0 0)"><path class="bj" d="M284.018,1023l-13.941-49.229L265.6,957.981l-.379-1.34-2.909-10.276a2.543,2.543,0,0,1,1.676-3.17l130.995-40.463a2.543,2.543,0,0,1,3.171,1.673l3.3,10.157.428,1.316,5.071,15.613L422.5,979.353a4.412,4.412,0,0,1-3.292,5.1l-127,42.858a6.393,6.393,0,0,1-8.193-4.311Z" transform="translate(-262.202 -902.619)"/><path class="bk" d="M280.433,959.272a2.4,2.4,0,0,1,1.61-2.971l124.786-38.546a2.4,2.4,0,0,1,3.005,1.546l22.738,69.93a4.175,4.175,0,0,1-3.155,4.792l-121,40.762a6.159,6.159,0,0,1-4.773-.345,5.894,5.894,0,0,1-2.994-3.638Z" transform="translate(-276.481 -914.455)"/></g><path class="bl" d="M756.948,1126.684a1.82,1.82,0,0,1-.843,2.375l-33.792,10.554c-.8.249-1.713-.411-2.045-1.474l-.07-.225a1.82,1.82,0,0,1,.843-2.375l33.792-10.554c.8-.249,1.713.411,2.045,1.474Z" transform="translate(-622.854 -1077.728)"/><path class="bl" d="M771.33,1172.733a1.82,1.82,0,0,1-.843,2.376L736.7,1185.663c-.8.249-1.713-.411-2.045-1.474l-.07-.225a1.82,1.82,0,0,1,.843-2.376l33.792-10.555c.8-.249,1.713.411,2.045,1.474Z" transform="translate(-634.182 -1113.999)"/><path class="bl" d="M783.316,1211.106a1.82,1.82,0,0,1-.843,2.376l-33.792,10.555c-.8.249-1.713-.411-2.045-1.474l-.07-.225a1.819,1.819,0,0,1,.843-2.375l33.792-10.555c.8-.249,1.713.411,2.045,1.474Z" transform="translate(-643.623 -1144.224)"/><g transform="translate(15.023 39.324)"><path class="bm" d="M17.019,0h2.647A17.019,17.019,0,0,1,36.686,17.019v0A17.019,17.019,0,0,1,19.667,34.038H17.019A17.019,17.019,0,0,1,0,17.019v0A17.019,17.019,0,0,1,17.019,0Z" transform="translate(0 11.086) rotate(-17.588)"/><g transform="translate(14.432 8.859)"><path class="c" d="M423.355,1151.7l-2.941.932a1.557,1.557,0,0,1-1.741-.584l-2.4-3.388a1.133,1.133,0,0,0-1.267-.425l-7.3,2.314a1.133,1.133,0,0,0-.791,1.081v4.141a1.557,1.557,0,0,1-1.087,1.485l-2.886.915a1.557,1.557,0,0,1-2.026-1.55l.964-22.858a3.951,3.951,0,0,1,2.754-3.6l1.372-.435a3.952,3.952,0,0,1,4.343,1.38l13.774,18.169A1.557,1.557,0,0,1,423.355,1151.7Zm-11-8.759-4.782-6.953a.519.519,0,0,0-.948.308c.066,2.35.1,6.327.113,8.42a1.02,1.02,0,0,0,1.329.966l3.755-1.19A1.021,1.021,0,0,0,412.357,1142.937Z" transform="translate(-400.917 -1129.537)"/></g></g></g><g transform="translate(587.581 521) rotate(17)"><g transform="translate(0 0)"><path class="bj" d="M284.018,1023l-13.941-49.229L265.6,957.981l-.379-1.34-2.909-10.276a2.543,2.543,0,0,1,1.676-3.17l130.995-40.463a2.543,2.543,0,0,1,3.171,1.673l3.3,10.157.428,1.316,5.071,15.613L422.5,979.353a4.412,4.412,0,0,1-3.292,5.1l-127,42.858a6.393,6.393,0,0,1-8.193-4.311Z" transform="translate(-262.202 -902.619)"/><path class="bk" d="M280.433,959.272a2.4,2.4,0,0,1,1.61-2.971l124.786-38.546a2.4,2.4,0,0,1,3.005,1.546l22.738,69.93a4.175,4.175,0,0,1-3.155,4.792l-121,40.762a6.159,6.159,0,0,1-4.773-.345,5.894,5.894,0,0,1-2.994-3.638Z" transform="translate(-276.481 -914.455)"/></g><path class="bl" d="M756.948,1126.684a1.82,1.82,0,0,1-.843,2.375l-33.792,10.554c-.8.249-1.713-.411-2.045-1.474l-.07-.225a1.82,1.82,0,0,1,.843-2.375l33.792-10.554c.8-.249,1.713.411,2.045,1.474Z" transform="translate(-622.854 -1077.728)"/><path class="bl" d="M771.33,1172.733a1.82,1.82,0,0,1-.843,2.376L736.7,1185.663c-.8.249-1.713-.411-2.045-1.474l-.07-.225a1.82,1.82,0,0,1,.843-2.376l33.792-10.555c.8-.249,1.713.411,2.045,1.474Z" transform="translate(-634.182 -1113.999)"/><path class="bl" d="M783.316,1211.106a1.82,1.82,0,0,1-.843,2.376l-33.792,10.555c-.8.249-1.713-.411-2.045-1.474l-.07-.225a1.819,1.819,0,0,1,.843-2.375l33.792-10.555c.8-.249,1.713.411,2.045,1.474Z" transform="translate(-643.623 -1144.224)"/><g transform="translate(15.023 39.324)"><path class="bm" d="M17.019,0h2.647A17.019,17.019,0,0,1,36.686,17.019v0A17.019,17.019,0,0,1,19.667,34.038H17.019A17.019,17.019,0,0,1,0,17.019v0A17.019,17.019,0,0,1,17.019,0Z" transform="translate(0 11.086) rotate(-17.588)"/><g transform="translate(14.432 8.859)"><path class="c" d="M423.355,1151.7l-2.941.932a1.557,1.557,0,0,1-1.741-.584l-2.4-3.388a1.133,1.133,0,0,0-1.267-.425l-7.3,2.314a1.133,1.133,0,0,0-.791,1.081v4.141a1.557,1.557,0,0,1-1.087,1.485l-2.886.915a1.557,1.557,0,0,1-2.026-1.55l.964-22.858a3.951,3.951,0,0,1,2.754-3.6l1.372-.435a3.952,3.952,0,0,1,4.343,1.38l13.774,18.169A1.557,1.557,0,0,1,423.355,1151.7Zm-11-8.759-4.782-6.953a.519.519,0,0,0-.948.308c.066,2.35.1,6.327.113,8.42a1.02,1.02,0,0,0,1.329.966l3.755-1.19A1.021,1.021,0,0,0,412.357,1142.937Z" transform="translate(-400.917 -1129.537)"/></g></g></g></g></svg>